solid ascii
 facet normal -1 0 0
  outer loop
   vertex -0.35 0.65 0
   vertex -0.35 0.65 1.5
   vertex -0.35 1.55 0
  endloop
 endfacet
 facet normal -1 0 0
  outer loop
   vertex -0.35 1.55 1.5
   vertex -0.35 1.55 0
   vertex -0.35 0.65 1.5
  endloop
 endfacet
 facet normal 1 0 0
  outer loop
   vertex 0.35 0.65 0
   vertex 0.35 1.55 0
   vertex 0.35 0.65 1.5
  endloop
 endfacet
 facet normal 1 -0 0
  outer loop
   vertex 0.35 1.55 1.5
   vertex 0.35 0.65 1.5
   vertex 0.35 1.55 0
  endloop
 endfacet
 facet normal 0 -1 0
  outer loop
   vertex -0.35 0.65 0
   vertex 0.35 0.65 0
   vertex -0.35 0.65 1.5
  endloop
 endfacet
 facet normal 0 -1 0
  outer loop
   vertex 0.35 0.65 1.5
   vertex -0.35 0.65 1.5
   vertex 0.35 0.65 0
  endloop
 endfacet
 facet normal 0 1 0
  outer loop
   vertex -0.35 1.55 0
   vertex -0.35 1.55 1.5
   vertex 0.35 1.55 0
  endloop
 endfacet
 facet normal 0 1 -0
  outer loop
   vertex 0.35 1.55 1.5
   vertex 0.35 1.55 0
   vertex -0.35 1.55 1.5
  endloop
 endfacet
 facet normal 0 0 -1
  outer loop
   vertex -0.35 0.65 0
   vertex -0.35 1.55 0
   vertex 0.35 0.65 0
  endloop
 endfacet
 facet normal 0 0 -1
  outer loop
   vertex 0.35 1.55 0
   vertex 0.35 0.65 0
   vertex -0.35 1.55 0
  endloop
 endfacet
 facet normal 0 0 1
  outer loop
   vertex -0.35 0.65 1.5
   vertex 0.35 0.65 1.5
   vertex -0.35 1.55 1.5
  endloop
 endfacet
 facet normal -0 0 1
  outer loop
   vertex 0.35 1.55 1.5
   vertex -0.35 1.55 1.5
   vertex 0.35 0.65 1.5
  endloop
 endfacet
endsolid
