solid ascii
 facet normal -1 0 0
  outer loop
   vertex -0.2 0.66 -0.05
   vertex -0.2 0.66 0.05
   vertex -0.2 0.96 -0.05
  endloop
 endfacet
 facet normal -1 0 0
  outer loop
   vertex -0.2 0.96 0.05
   vertex -0.2 0.96 -0.05
   vertex -0.2 0.66 0.05
  endloop
 endfacet
 facet normal 1 0 0
  outer loop
   vertex 0.2 0.66 -0.05
   vertex 0.2 0.96 -0.05
   vertex 0.2 0.66 0.05
  endloop
 endfacet
 facet normal 1 -0 0
  outer loop
   vertex 0.2 0.96 0.05
   vertex 0.2 0.66 0.05
   vertex 0.2 0.96 -0.05
  endloop
 endfacet
 facet normal 0 -1 0
  outer loop
   vertex -0.2 0.66 -0.05
   vertex 0.2 0.66 -0.05
   vertex -0.2 0.66 0.05
  endloop
 endfacet
 facet normal 0 -1 0
  outer loop
   vertex 0.2 0.66 0.05
   vertex -0.2 0.66 0.05
   vertex 0.2 0.66 -0.05
  endloop
 endfacet
 facet normal 0 1 0
  outer loop
   vertex -0.2 0.96 -0.05
   vertex -0.2 0.96 0.05
   vertex 0.2 0.96 -0.05
  endloop
 endfacet
 facet normal 0 1 -0
  outer loop
   vertex 0.2 0.96 0.05
   vertex 0.2 0.96 -0.05
   vertex -0.2 0.96 0.05
  endloop
 endfacet
 facet normal 0 0 -1
  outer loop
   vertex -0.2 0.66 -0.05
   vertex -0.2 0.96 -0.05
   vertex 0.2 0.66 -0.05
  endloop
 endfacet
 facet normal 0 0 -1
  outer loop
   vertex 0.2 0.96 -0.05
   vertex 0.2 0.66 -0.05
   vertex -0.2 0.96 -0.05
  endloop
 endfacet
 facet normal 0 0 1
  outer loop
   vertex -0.2 0.66 0.05
   vertex 0.2 0.66 0.05
   vertex -0.2 0.96 0.05
  endloop
 endfacet
 facet normal -0 0 1
  outer loop
   vertex 0.2 0.96 0.05
   vertex -0.2 0.96 0.05
   vertex 0.2 0.66 0.05
  endloop
 endfacet
endsolid
